HIERARCHY
ROOT Hips
{
  OFFSET 51.5313 56.1669 7.30546
  CHANNELS 6 Xposition Yposition Zposition Zrotation Xrotation Yrotation
  JOINT spine
  {
    OFFSET 0 6.3926 0.367606
    CHANNELS 3 Zrotation Xrotation Yrotation
    JOINT spine1
    {
      OFFSET 0 9.17611 0
      CHANNELS 3 Zrotation Xrotation Yrotation
      JOINT spine2
      {
        OFFSET 0 8.79238 0
        CHANNELS 3 Zrotation Xrotation Yrotation
        JOINT Neck
        {
          OFFSET 0 22.5737 1.07624
          CHANNELS 3 Zrotation Xrotation Yrotation
          JOINT Head
          {
            OFFSET 0 6.82011 0
            CHANNELS 3 Zrotation Xrotation Yrotation
            End Site
            {
              OFFSET 0 16.5085 -5.44427
            }
          }
        }
        JOINT RightShoulder
        {
          OFFSET -3.70221 9.49509 -0.515508
          CHANNELS 3 Zrotation Xrotation Yrotation
          JOINT RightArm
          {
            OFFSET 0 12.4537 0
            CHANNELS 3 Zrotation Xrotation Yrotation
            JOINT RightArmRoll
            {
              OFFSET 0 6.28686 0
              CHANNELS 3 Zrotation Xrotation Yrotation
              JOINT RightForeArm
              {
                OFFSET 0 18.3114 0
                CHANNELS 3 Zrotation Xrotation Yrotation
                JOINT RightForeArmRoll
                {
                  OFFSET 0 7.05483 0
                  CHANNELS 3 Zrotation Xrotation Yrotation
                  JOINT RightHand
                  {
                    OFFSET 0 14.1575 0
                    CHANNELS 3 Zrotation Xrotation Yrotation
                    End Site
                    {
                      OFFSET 0 0 0
                    }
                  }
                }
              }
            }
          }
        }
        JOINT LeftShoulder
        {
          OFFSET 3.70221 9.49509 -0.515508
          CHANNELS 3 Zrotation Xrotation Yrotation
          JOINT LeftArm
          {
            OFFSET 0 12.4537 0
            CHANNELS 3 Zrotation Xrotation Yrotation
            JOINT LeftArmRoll
            {
              OFFSET 0 6.28686 0
              CHANNELS 3 Zrotation Xrotation Yrotation
              JOINT LeftForeArm
              {
                OFFSET 0 18.3114 0
                CHANNELS 3 Zrotation Xrotation Yrotation
                JOINT LeftForeArmRoll
                {
                  OFFSET 0 7.05483 0
                  CHANNELS 3 Zrotation Xrotation Yrotation
                  JOINT LeftHand
                  {
                    OFFSET 0 14.1575 0
                    CHANNELS 3 Zrotation Xrotation Yrotation
                    End Site
                    {
                      OFFSET 0 0 0
                    }
                  }
                }
              }
            }
          }
        }
      }
    }
  }
  JOINT RightUpLeg
  {
    OFFSET -5.66616 -1.03903 -0.87161
    CHANNELS 3 Zrotation Xrotation Yrotation
    JOINT RightUpLegRoll
    {
      OFFSET 0 16.6005 0
      CHANNELS 3 Zrotation Xrotation Yrotation
      JOINT RightLeg
      {
        OFFSET 0 -20.5572 0
        CHANNELS 3 Zrotation Xrotation Yrotation
        JOINT RightLegRoll
        {
          OFFSET 0 20.6244 0
          CHANNELS 3 Zrotation Xrotation Yrotation
          JOINT RightFoot
          {
            OFFSET 0 17.1664 0
            CHANNELS 3 Zrotation Xrotation Yrotation
            JOINT RightToeBase
            {
              OFFSET 0 14.3502 0
              CHANNELS 3 Zrotation Xrotation Yrotation
              End Site
              {
                OFFSET 0.00608252 6.94971 -0.801061
              }
            }
          }
        }
      }
    }
  }
  JOINT LeftUpLeg
  {
    OFFSET 5.66616 -1.03903 -0.87161
    CHANNELS 3 Zrotation Xrotation Yrotation
    JOINT LeftUpLegRoll
    {
      OFFSET 0 16.6006 0
      CHANNELS 3 Zrotation Xrotation Yrotation
      JOINT LeftLeg
      {
        OFFSET 0 20.5571 0
        CHANNELS 3 Zrotation Xrotation Yrotation
        JOINT LeftLegRoll
        {
          OFFSET 0 20.8151 0
          CHANNELS 3 Zrotation Xrotation Yrotation
          JOINT LeftFoot
          {
            OFFSET 0 16.9757 0
            CHANNELS 3 Zrotation Xrotation Yrotation
            JOINT LeftToeBase
            {
              OFFSET 0 14.3502 0
              CHANNELS 3 Zrotation Xrotation Yrotation
              End Site
              {
                OFFSET -0.0272592 6.9497 -0.801061
              }
            }
          }
        }
      }
    }
  }
}
MOTION
Frames: 5
Frame Time: 0.00208333
53.6755 86.0595 45.8466 -1.006 -0.989044 1.62135 -0.192597 -1.73323 -0.207507 -0.409531 0.522351 -0.395461 -0.404996 2.16739 -0.388738 2.37019 8.1043 0.259617 -0.735024 3.58655 0.889748 60.6353 -3.29532 -2.1678 109.699 16.5297 2.15295 9.41634e-007 -3.29622e-008 -3.32877e-006 14.8576 4.61371 -0.870488 9.92907e-006 8.20268e-007 -3 8.02891 -4.95144 0.697683 -53.7826 -5.38423 3.01069 -113.729 16.0644 3.2811 -7.53342e-006 -6.80355e-008 1.70079e-006 -12.4062 2.41526 0.665329 -2.2103e-008 -1.413e-008 3 -8.02887 -4.95147 -0.697687 177.389 0.628224 0.259428 180 7.01559e-015 178.976 176.139 5.96479 179.792 -2.94311e-006 4.56567e-006 0.0523741 -18.1122 67.342 19.0284 8.13649 25.2327 -3.48774 -175.822 -0.139321 1.57738 4.54188e-006 -4.6773e-006 -1.10707 -0.34112 -5.71421 0.462363 1.95755e-006 -6.86802e-006 -0.0745909 19.143 68.5032 -19.9561 -8.13649 25.2326 3.48774 
53.6743 86.0605 45.8364 -0.99636 -0.996344 1.62163 -0.195176 -1.72994 -0.207377 -0.413599 0.530159 -0.394959 -0.409075 2.1752 -0.388148 2.37183 8.10005 0.260366 -0.736942 3.59574 0.890846 60.6365 -3.29497 -2.1677 109.711 16.5334 2.10889 9.41634e-007 -3.29622e-008 -3.32877e-006 14.8743 4.67117 -0.877732 9.92907e-006 8.20268e-007 -3 8.02891 -4.95144 0.697683 -53.7789 -5.39033 3.01468 -113.739 16.0717 3.29678 -7.53342e-006 -6.80355e-008 1.70079e-006 -12.4109 2.42377 0.666206 -2.2103e-008 -1.413e-008 3 -8.02887 -4.95147 -0.697687 177.379 0.626062 0.264188 180 7.01559e-015 178.976 176.141 5.96766 179.792 -2.94311e-006 4.56567e-006 0.0523741 -18.1106 67.3399 19.0267 8.13649 25.2327 -3.48774 -175.835 -0.145968 1.58397 4.54188e-006 -4.6773e-006 -1.10705 -0.340863 -5.70829 0.461799 1.95755e-006 -6.86802e-006 -0.0732927 19.1351 68.4942 -19.948 -8.13649 25.2326 3.48774 
53.6667 86.056 45.8257 -0.986248 -1.00431 1.62145 -0.197846 -1.72654 -0.207199 -0.417822 0.538251 -0.394353 -0.41331 2.18329 -0.387449 2.37364 8.09532 0.26125 -0.739255 3.6054 0.892099 60.6375 -3.2946 -2.16758 109.723 16.5366 2.0638 9.41634e-007 -3.29622e-008 -3.32877e-006 14.8916 4.73014 -0.885161 9.92907e-006 8.20268e-007 -3 8.02891 -4.95144 0.697683 -53.7753 -5.39699 3.01906 -113.75 16.0791 3.31239 -7.53342e-006 -6.80356e-008 1.70079e-006 -12.4156 2.43173 0.667012 -2.2103e-008 -1.413e-008 3 -8.02887 -4.95147 -0.697687 177.368 0.623095 0.269594 180 7.01559e-015 178.976 176.143 5.97045 179.792 -2.94311e-006 4.56567e-006 0.0523741 -18.109 67.3379 19.025 8.13649 25.2327 -3.48774 -175.848 -0.154204 1.5909 4.54188e-006 -4.6773e-006 -1.10704 -0.340543 -5.70121 0.461193 1.95755e-006 -6.86802e-006 -0.0719176 19.127 68.4849 -19.9397 -8.13649 25.2326 3.48774 
53.6732 86.0552 45.8245 -0.975803 -1.01275 1.62095 -0.20058 -1.72306 -0.206988 -0.422153 0.546542 -0.393674 -0.417653 2.19158 -0.386675 2.37557 8.09026 0.262228 -0.741844 3.61538 0.893461 60.6383 -3.29421 -2.16743 109.735 16.5396 2.01799 9.41634e-007 -3.29622e-008 -3.32877e-006 14.9093 4.79018 -0.892722 9.92907e-006 8.20268e-007 -3 8.02891 -4.95144 0.697683 -53.7718 -5.40405 3.02372 -113.76 16.0865 3.32794 -7.53342e-006 -6.80356e-008 1.70079e-006 -12.4203 2.43932 0.667768 -2.21031e-008 -1.413e-008 3 -8.02887 -4.95147 -0.697687 177.356 0.619566 0.275452 180 7.01559e-015 178.975 176.144 5.97318 179.792 -2.94311e-006 4.56567e-006 0.0523741 -18.1075 67.3359 19.0233 8.13649 25.2327 -3.48774 -175.862 -0.163554 1.59807 4.54188e-006 -4.6773e-006 -1.10705 -0.340181 -5.69333 0.460557 1.95755e-006 -6.86802e-006 -0.0704886 19.1187 68.4756 -19.9313 -8.13649 25.2326 3.48774 
53.667 86.0507 45.8126 -0.965167 -1.02145 1.62026 -0.203351 -1.71953 -0.206758 -0.426546 0.554946 -0.392953 -0.42206 2.19998 -0.385857 2.37757 8.08502 0.26326 -0.744592 3.62555 0.894886 60.6389 -3.29382 -2.16727 109.748 16.5424 1.97177 9.41634e-007 -3.29622e-008 -3.32877e-006 14.9271 4.85082 -0.900359 9.92907e-006 8.20268e-007 -3 8.02891 -4.95144 0.697683 -53.7684 -5.41132 3.02854 -113.77 16.0938 3.34346 -7.53342e-006 -6.80355e-008 1.70079e-006 -12.4251 2.44668 0.668496 -2.2103e-008 -1.413e-008 3 -8.02887 -4.95147 -0.697687 177.344 0.615714 0.281567 180 7.01559e-015 178.975 176.146 5.97587 179.792 -2.94311e-006 4.56567e-006 0.0523741 -18.1059 67.3339 19.0216 8.13649 25.2327 -3.48774 -175.876 -0.173539 1.60537 4.54188e-006 -4.6773e-006 -1.10706 -0.339793 -5.68498 0.459906 1.95755e-006 -6.86802e-006 -0.0690289 19.1104 68.4661 -19.9228 -8.13649 25.2326 3.48774 
